<?xml version="1.0" encoding="UTF-8" standalone="no"?>
<!-- Created with Inkscape (http://www.inkscape.org/) -->

<svg
   width="95.136414mm"
   height="95.136414mm"
   viewBox="0 0 95.136414 95.136414"
   version="1.1"
   id="svg5"
   xml:space="preserve"
   sodipodi:docname="favicon.svg"
   inkscape:version="1.2.2 (732a01da63, 2022-12-09)"
   xmlns:inkscape="http://www.inkscape.org/namespaces/inkscape"
   xmlns:sodipodi="http://sodipodi.sourceforge.net/DTD/sodipodi-0.dtd"
   xmlns="http://www.w3.org/2000/svg"
   xmlns:svg="http://www.w3.org/2000/svg"><sodipodi:namedview
     id="namedview7"
     pagecolor="#ffffff"
     bordercolor="#000000"
     borderopacity="0.25"
     inkscape:showpageshadow="2"
     inkscape:pageopacity="0.0"
     inkscape:pagecheckerboard="0"
     inkscape:deskcolor="#d1d1d1"
     inkscape:document-units="mm"
     showgrid="false"
     inkscape:zoom="2.2471242"
     inkscape:cx="180.00786"
     inkscape:cy="180.00786"
     inkscape:window-width="1920"
     inkscape:window-height="991"
     inkscape:window-x="-9"
     inkscape:window-y="-9"
     inkscape:window-maximized="1"
     inkscape:current-layer="layer1" /><defs
     id="defs2" /><g
     inkscape:label="Layer 1"
     inkscape:groupmode="layer"
     id="layer1"
     transform="translate(-57.431795,-22.822263)"><g
       id="g428"
       transform="translate(10.349627,-1.470297)"><path
         style="display:inline;fill:#0086a8;stroke-width:0.0228309"
         d="m 118.13173,100.12189 c -3.91138,-4.161794 -7.13082,-7.591118 -7.15432,-7.620725 l -0.0427,-0.05383 0.31448,-0.304761 c 0.77729,-0.753271 1.63865,-1.725475 2.30905,-2.606166 l 0.23987,-0.31512 0.0722,0.05417 c 0.69482,0.521218 16.52306,12.523242 16.55352,12.551972 0.0419,0.0395 0.0369,0.0486 -0.18081,0.33369 -0.81286,1.06414 -1.72522,2.15077 -2.67044,3.18053 -0.44299,0.48261 -1.61881,1.67836 -2.0436,2.07825 l -0.28562,0.26888 z m -55.040792,6.57496 c -1.334332,-1.33418 -2.22196,-2.31477 -3.272108,-3.61481 -0.363317,-0.44977 -0.985542,-1.25703 -0.975203,-1.2652 0.250041,-0.19764 16.634908,-12.606715 16.651554,-12.61105 0.01367,-0.0036 0.155424,0.162811 0.315024,0.369716 0.645678,0.837059 1.258019,1.532149 2.038104,2.313519 l 0.529784,0.530656 -7.147525,7.608559 c -3.931141,4.18471 -7.155849,7.61195 -7.16602,7.61609 -0.01017,0.004 -0.448295,-0.42223 -0.97361,-0.94748 z M 126.20428,88.376982 c -5.28562,-2.221861 -9.61334,-4.042871 -9.61716,-4.046688 -0.004,-0.0038 0.0297,-0.09357 0.0744,-0.199456 0.37106,-0.878593 0.81381,-2.246527 1.07098,-3.308939 0.0593,-0.244861 0.11704,-0.482784 0.12838,-0.52872 l 0.0206,-0.08352 0.13096,0.03077 c 0.072,0.01693 4.63607,1.084734 10.14232,2.372909 5.50624,1.288174 10.02792,2.34725 10.04818,2.353504 0.0327,0.01009 0.0281,0.04918 -0.0409,0.347582 -0.34208,1.479694 -0.84326,3.214115 -1.32813,4.596228 -0.42224,1.203564 -0.93119,2.494939 -0.98603,2.501866 -0.0183,0.0023 -4.35794,-1.813676 -9.64357,-4.035539 z M 53.172502,91.72992 c -0.585042,-1.467214 -1.016359,-2.727684 -1.447445,-4.229979 -0.264838,-0.922932 -0.668695,-2.532044 -0.642158,-2.55858 0.0095,-0.0095 20.123986,-4.71967 20.275867,-4.747953 l 0.07257,-0.01351 0.12267,0.509358 c 0.26998,1.12102 0.689462,2.427163 1.086548,3.383196 0.04629,0.111442 0.07564,0.211143 0.06522,0.221561 -0.01306,0.01306 -18.925029,7.968643 -19.243151,8.094898 -0.01299,0.0052 -0.143542,-0.291388 -0.290118,-0.658987 z M 118.40572,74.400705 c -9.4e-4,-0.884741 -0.16122,-2.414463 -0.37817,-3.609095 -0.0452,-0.248996 -0.0787,-0.456237 -0.0744,-0.460538 0.008,-0.0078 20.3683,-3.905442 20.4746,-3.919476 0.0551,-0.0073 0.0574,-8.22e-4 0.11886,0.32363 0.43354,2.289879 0.65299,4.32949 0.76214,7.083291 l 0.0143,0.359587 h -0.14656 c -0.0806,0 -4.74729,0.0976 -10.37042,0.216893 -5.62313,0.119292 -10.26352,0.216894 -10.31198,0.216894 h -0.0881 l -2.3e-4,-0.211186 z m -57.910394,-0.0441 C 54.78189,74.234866 50.084145,74.134627 50.055891,74.13385 c -0.05028,-0.0014 -0.05137,-0.0071 -0.05131,-0.269671 2.72e-4,-1.164719 0.190259,-3.460884 0.424565,-5.131248 0.117371,-0.836737 0.374472,-2.324966 0.407329,-2.357824 0.01321,-0.01321 20.495276,3.899616 20.519091,3.919904 0.0086,0.0073 -0.0047,0.110855 -0.02946,0.230147 -0.171019,0.823933 -0.327925,2.073604 -0.385555,3.070757 -0.01379,0.238583 -0.03229,0.557143 -0.04112,0.707912 l -0.01605,0.274124 z m 55.413324,-9.853101 c -0.51088,-1.023137 -1.15378,-2.101656 -1.77552,-2.978553 -0.13469,-0.189973 -0.15645,-0.232836 -0.13048,-0.256984 0.0171,-0.01594 3.86847,-2.697918 8.55851,-5.959948 4.69004,-3.262031 8.53772,-5.93894 8.55039,-5.948691 0.0618,-0.04751 1.46991,2.109629 2.21678,3.395893 0.67545,1.163267 1.77971,3.292172 1.73187,3.338882 -0.018,0.01757 -18.87835,8.905974 -18.89764,8.905974 -0.003,0 -0.11754,-0.223458 -0.25391,-0.496573 z M 63.680239,60.50959 c -5.192321,-2.444389 -9.444801,-4.447629 -9.449956,-4.451647 -0.01694,-0.0132 0.810685,-1.650462 1.129065,-2.233598 0.567002,-1.03851 1.149474,-2.015132 1.795485,-3.010459 0.4924,-0.758658 1.007942,-1.499352 1.036442,-1.489087 0.04639,0.0167 17.098419,11.887225 17.119049,11.917175 0.0143,0.02076 -0.02894,0.09968 -0.141903,0.259003 -0.612903,0.864442 -1.269061,1.965837 -1.783382,2.9935 -0.126605,0.252966 -0.237846,0.459828 -0.247204,0.459696 -0.0094,-2.28e-4 -4.265276,-2.000196 -9.457596,-4.444583 z m 46.152691,-3.651115 c -0.85576,-0.714916 -1.88477,-1.45077 -2.80571,-2.006401 -0.23797,-0.143579 -0.3317,-0.211921 -0.32273,-0.235314 0.0303,-0.07909 10.79625,-17.858523 10.81379,-17.858523 0.0107,0 0.16604,0.08916 0.34514,0.198125 1.84992,1.125577 3.69601,2.449118 5.35725,3.840837 0.29367,0.246022 0.55454,0.463863 0.57971,0.484091 0.0443,0.03559 -0.17457,0.292265 -6.7782,7.949496 -3.75317,4.351994 -6.82909,7.912959 -6.83537,7.913253 -0.006,2.97e-4 -0.16553,-0.128209 -0.35388,-0.285564 z m -37.537971,-7.660137 -6.829967,-7.916482 0.400714,-0.338305 c 0.883531,-0.745925 2.026138,-1.631958 2.99715,-2.324134 0.941803,-0.671356 2.906115,-1.932747 2.946044,-1.891815 0.01031,0.01057 2.445168,4.031182 5.410794,8.934691 2.965623,4.90351 5.395878,8.921792 5.400565,8.929513 0.0047,0.0077 -0.142766,0.105216 -0.327676,0.216649 -0.913156,0.550312 -1.948378,1.291445 -2.836396,2.030627 l -0.33126,0.275741 z m 29.353091,3.196068 c -0.11137,-0.04477 -0.93979,-0.27325 -1.35151,-0.372756 -0.758177,-0.183234 -1.673014,-0.356094 -2.427009,-0.458586 -0.150684,-0.02048 -0.276798,-0.04002 -0.280254,-0.04342 -0.0082,-0.0081 2.613203,-20.720775 2.623743,-20.730859 0.0144,-0.01378 1.13072,0.145298 1.84598,0.263058 0.82085,0.135144 2.05097,0.378295 2.81962,0.557339 0.92565,0.215613 1.55147,0.383393 2.9187,0.782486 0.0284,0.0083 0.039,0.02815 0.0326,0.0613 -0.005,0.02697 -1.3648,4.530568 -3.02144,10.007994 -2.71499,8.976739 -3.01657,9.958829 -3.05772,9.957671 -0.0251,-7.08e-4 -0.0713,-0.01161 -0.10274,-0.02423 z M 84.738393,42.345761 c -2.076574,-6.886463 -3.008879,-10.009947 -2.99085,-10.020197 0.01441,-0.0082 0.243227,-0.07702 0.508488,-0.152957 2.165827,-0.62001 4.397204,-1.080519 6.612871,-1.364758 0.260811,-0.03346 0.480997,-0.05404 0.489301,-0.04573 0.01925,0.01925 2.610651,20.599798 2.603471,20.676398 -0.005,0.0535 -0.01609,0.05821 -0.176582,0.07519 -0.978647,0.103534 -2.509208,0.411568 -3.658923,0.736379 -0.197921,0.05591 -0.362304,0.101511 -0.365294,0.101321 -0.003,-2.28e-4 -1.363109,-4.502728 -3.022482,-10.005647 z"
         id="path432" /><path
         style="display:inline;fill:#650773;stroke-width:0.0228309"
         d="m 93.451749,115.02272 c -0.913883,-0.0312 -1.903249,-0.0972 -2.756312,-0.18385 -0.241435,-0.0245 -0.449481,-0.0446 -0.462326,-0.0446 -0.03348,0 -0.03249,-39.761167 9.82e-4,-40.104243 0.08022,-0.821885 0.377927,-1.596931 0.863143,-2.247103 0.158214,-0.212001 0.531905,-0.601186 0.744925,-0.775806 1.678626,-1.376046 4.11876,-1.319709 5.755707,0.132885 0.800125,0.710019 1.322844,1.722148 1.446384,2.800609 0.02263,0.197588 0.037,40.193658 0.01443,40.193658 -0.0052,0 -0.269757,0.0251 -0.587896,0.0558 -0.651152,0.0628 -1.38267,0.11565 -2.069764,0.14949 -0.664818,0.0327 -2.294242,0.0455 -2.949286,0.0231 z"
         id="path430" /></g></g></svg>
