<svg height="256" node-id="1" sillyvg="true" template-height="1024" template-width="1024" version="1.1" viewBox="0 0 1024 1024" width="256" xmlns="http://www.w3.org/2000/svg" xmlns:xlink="http://www.w3.org/1999/xlink"><defs node-id="31"></defs><path d="M 481.10 156.89 C 261.83 156.89 84.07 334.65 84.07 553.92 C 84.07 773.19 261.83 950.95 481.10 950.95 C 700.37 950.95 878.13 773.19 878.13 553.92 C 878.13 334.65 700.37 156.89 481.10 156.89 Z M 315.79 397.64 L 544.26 499.79 L 646.41 728.26 L 417.94 626.11 L 315.79 397.64 Z" fill="#9777c3" fill-rule="nonzero" node-id="35" stroke="none" target-height="794.06" target-width="794.06" target-x="84.07" target-y="156.89"/><path d="M 682.14 298.74 C 626.92 255.25 557.08 229.08 481.10 229.08 C 301.71 229.08 156.26 374.54 156.26 553.92 C 156.26 629.90 182.43 699.74 225.92 754.96 C 281.14 798.45 350.98 824.62 426.96 824.62 C 606.35 824.62 751.80 679.16 751.80 499.78 C 751.81 423.80 725.64 353.96 682.14 298.74 Z M 417.94 626.11 L 401.16 588.75 L 315.80 397.63 L 506.91 483.00 L 544.27 499.78 L 646.42 728.25 L 417.94 626.11 Z" fill="#aee6f5" fill-rule="nonzero" node-id="37" stroke="none" target-height="595.54" target-width="595.55" target-x="156.26" target-y="229.08"/><path d="M 805.95 553.92 C 805.95 733.31 660.49 878.76 481.11 878.76 C 377.70 878.76 285.48 830.39 225.93 754.96 C 281.15 798.45 350.99 824.62 426.97 824.62 C 606.36 824.62 751.81 679.16 751.81 499.78 C 751.81 423.80 725.64 353.96 682.15 298.74 C 757.58 358.29 805.95 450.51 805.95 553.92 Z" fill="#35c1e6" fill-rule="nonzero" node-id="39" stroke="none" target-height="580.02" target-width="580.02" target-x="225.93" target-y="298.74"/><path d="M 544.27 499.78 L 417.94 626.11 L 315.79 397.64 Z" fill="#e96762" fill-rule="nonzero" node-id="41" stroke="none" target-height="228.46997" target-width="228.48001" target-x="315.79" target-y="397.64"/><path d="M 646.41 728.25 L 417.94 626.11 L 544.27 499.78 Z" fill="#ffc764" fill-rule="nonzero" node-id="43" stroke="none" target-height="228.47" target-width="228.46997" target-x="417.94" target-y="499.78"/><g node-id="94"><path d="M 481.10 969.00 C 252.23 969.00 66.02 782.79 66.02 553.92 C 66.02 484.57 83.44 415.94 116.41 355.43 C 121.17 346.68 132.13 343.43 140.89 348.22 C 149.64 352.99 152.87 363.94 148.10 372.70 C 118.02 427.93 102.12 490.59 102.12 553.92 C 102.12 762.90 272.13 932.90 481.10 932.90 C 690.07 932.90 860.09 762.90 860.09 553.92 C 860.09 344.94 690.08 174.94 481.10 174.94 C 365.99 174.94 258.36 226.44 185.81 316.22 C 179.55 323.99 168.19 325.19 160.43 318.92 C 152.68 312.66 151.47 301.30 157.73 293.54 C 237.16 195.23 355.03 138.85 481.09 138.85 C 709.96 138.85 896.17 325.06 896.17 553.93 C 896.17 782.80 709.97 969.00 481.10 969.00 Z" fill="#22104f" fill-rule="nonzero" group-id="1" node-id="47" stroke="none" target-height="830.15" target-width="830.14996" target-x="66.02" target-y="138.85"/></g><g node-id="95"><path d="M 481.10 896.81 C 292.03 896.81 138.21 742.99 138.21 553.92 C 138.21 364.85 292.03 211.03 481.10 211.03 C 670.17 211.03 823.99 364.85 823.99 553.92 C 823.99 664.46 770.29 768.72 680.35 832.83 C 672.22 838.61 660.95 836.72 655.17 828.61 C 649.39 820.49 651.28 809.22 659.39 803.43 C 739.86 746.08 787.89 652.81 787.89 553.92 C 787.89 384.75 650.26 247.12 481.09 247.12 C 311.92 247.12 174.29 384.75 174.29 553.92 C 174.29 723.09 311.92 860.72 481.09 860.72 C 522.73 860.72 563.33 852.40 601.78 835.99 C 610.93 832.07 621.56 836.34 625.47 845.51 C 629.38 854.68 625.12 865.28 615.95 869.20 C 573.00 887.52 527.63 896.81 481.10 896.81 Z" fill="#22104f" fill-rule="nonzero" group-id="2" node-id="52" stroke="none" target-height="685.78" target-width="685.77997" target-x="138.21" target-y="211.03"/></g><g node-id="96"><path d="M 860.09 283.22 C 800.38 283.22 751.81 234.65 751.81 174.94 C 751.81 115.23 800.38 66.66 860.09 66.66 C 919.80 66.66 968.37 115.23 968.37 174.94 C 968.37 234.65 919.80 283.22 860.09 283.22 Z M 860.09 102.75 C 820.29 102.75 787.90 135.13 787.90 174.94 C 787.90 214.75 820.28 247.13 860.09 247.13 C 899.89 247.13 932.28 214.75 932.28 174.94 C 932.28 135.13 899.89 102.75 860.09 102.75 Z" fill="#22104f" fill-rule="nonzero" group-id="3" node-id="57" stroke="none" target-height="216.56" target-width="216.56" target-x="751.81" target-y="66.66"/></g><g node-id="97"><path d="M 769.85 283.22 C 765.23 283.22 760.62 281.46 757.09 277.93 C 750.04 270.88 750.04 259.46 757.09 252.41 L 793.18 216.32 C 800.23 209.27 811.65 209.27 818.70 216.32 C 825.75 223.37 825.75 234.79 818.70 241.84 L 782.61 277.93 C 779.09 281.46 774.47 283.22 769.85 283.22 Z" fill="#22104f" fill-rule="nonzero" group-id="4" node-id="62" stroke="none" target-height="73.95" target-width="75.71002" target-x="750.04" target-y="209.27"/></g><g node-id="98"><path d="M 646.41 746.31 C 643.93 746.31 641.42 745.80 639.05 744.74 L 410.57 642.59 C 406.52 640.77 403.27 637.53 401.46 633.48 L 299.31 405.00 C 296.26 398.17 297.73 390.16 303.03 384.87 C 308.33 379.58 316.31 378.11 323.16 381.15 L 551.63 483.30 C 555.70 485.12 558.95 488.39 560.76 492.46 L 570.68 514.84 C 574.72 523.95 570.61 534.61 561.50 538.65 C 552.36 542.70 541.74 538.58 537.69 529.47 L 530.57 513.42 L 351.54 433.37 L 431.60 612.44 L 610.65 692.49 L 567.14 595.21 C 563.08 586.12 567.15 575.44 576.25 571.36 C 585.30 567.31 596.01 571.36 600.10 580.47 L 662.90 720.88 C 665.95 727.71 664.48 735.72 659.18 741.01 C 655.72 744.47 651.10 746.31 646.41 746.31 Z" fill="#22104f" fill-rule="nonzero" group-id="5" node-id="67" stroke="none" target-height="368.2" target-width="369.69" target-x="296.26" target-y="378.11"/></g><g node-id="99"><path d="M 481.10 301.27 C 471.13 301.27 463.05 293.19 463.05 283.22 L 463.05 229.08 C 463.05 219.11 471.13 211.03 481.10 211.03 C 491.07 211.03 499.15 219.11 499.15 229.08 L 499.15 283.22 C 499.15 293.18 491.07 301.27 481.10 301.27 Z" fill="#22104f" fill-rule="nonzero" group-id="6" node-id="72" stroke="none" target-height="90.23999" target-width="36.100006" target-x="463.05" target-y="211.03"/></g><g node-id="100"><path d="M 481.10 896.81 C 471.13 896.81 463.05 888.73 463.05 878.76 L 463.05 824.62 C 463.05 814.65 471.13 806.57 481.10 806.57 C 491.07 806.57 499.15 814.65 499.15 824.62 L 499.15 878.76 C 499.15 888.73 491.07 896.81 481.10 896.81 Z" fill="#22104f" fill-rule="nonzero" group-id="7" node-id="77" stroke="none" target-height="90.23999" target-width="36.100006" target-x="463.05" target-y="806.57"/></g><g node-id="101"><path d="M 210.40 571.97 L 156.26 571.97 C 146.29 571.97 138.21 563.89 138.21 553.92 C 138.21 543.95 146.29 535.87 156.26 535.87 L 210.40 535.87 C 220.37 535.87 228.45 543.95 228.45 553.92 C 228.45 563.89 220.36 571.97 210.40 571.97 Z" fill="#22104f" fill-rule="nonzero" group-id="8" node-id="82" stroke="none" target-height="36.099976" target-width="90.23999" target-x="138.21" target-y="535.87"/></g><g node-id="102"><path d="M 805.95 571.97 L 751.81 571.97 C 741.84 571.97 733.76 563.89 733.76 553.92 C 733.76 543.95 741.84 535.87 751.81 535.87 L 805.95 535.87 C 815.92 535.87 824.00 543.95 824.00 553.92 C 823.99 563.89 815.91 571.97 805.95 571.97 Z" fill="#22104f" fill-rule="nonzero" group-id="9" node-id="87" stroke="none" target-height="36.099976" target-width="90.23999" target-x="733.76" target-y="535.87"/></g><path d="M 417.94 644.16 C 413.32 644.16 408.71 642.40 405.18 638.87 C 398.13 631.82 398.13 620.40 405.18 613.35 L 531.51 487.02 C 538.56 479.97 549.98 479.97 557.03 487.02 C 564.08 494.07 564.08 505.49 557.03 512.54 L 430.70 638.87 C 427.17 642.39 422.56 644.16 417.94 644.16 Z" fill="#22104f" fill-rule="nonzero" group-id="10" node-id="92" stroke="none" target-height="164.18997" target-width="165.95001" target-x="398.13" target-y="479.97"/></svg>