<svg t="1710515675721" class="icon" viewBox="0 0 1024 1024" version="1.1" xmlns="http://www.w3.org/2000/svg" p-id="1630" width="32" height="32"><path d="M609.728 512c179.968 0 328.768 166.208 328.768 346.24v20.288c0 44.992-36.48 81.472-81.472 81.472H164.672C119.68 960 83.2 923.52 83.2 878.528v-20.352C83.2 678.208 226.112 512 406.08 512h203.648z m0 89.664H406.08c-126.208 0-226.368 119.36-232.896 243.968l-0.32 12.544v12.16h675.84l0.064-12.16c0-126.208-101.952-249.6-226.56-256.192l-12.48-0.32zM510.848 64a203.648 203.648 0 1 1 0 407.296 203.648 203.648 0 0 1 0-407.296z m0 89.664a113.92 113.92 0 1 0 0 227.904 113.92 113.92 0 0 0 0-227.84z" p-id="1631" fill="#0086a9"></path></svg>