<svg height="256" node-id="1" sillyvg="true" template-height="1024" template-width="1024" version="1.1" viewBox="0 0 1024 1024" width="256" xmlns="http://www.w3.org/2000/svg" xmlns:xlink="http://www.w3.org/1999/xlink"><defs node-id="18"></defs><path d="M 942.09 512.86 C 942.09 751.08 748.92 944.25 510.70 944.25 C 407.81 944.25 313.54 908.30 239.40 848.07 C 141.62 769.13 79.31 648.18 79.31 512.86 C 79.31 274.64 272.48 81.47 510.70 81.47 C 646.03 81.47 766.98 143.78 845.91 241.56 C 906.14 315.70 942.09 409.96 942.09 512.86 Z" fill="#aee6f5" fill-rule="nonzero" node-id="22" stroke="none" target-height="862.78" target-width="862.78" target-x="79.31" target-y="81.47"/><path d="M 942.09 512.86 C 942.09 751.08 748.92 944.25 510.70 944.25 C 407.81 944.25 313.54 908.30 239.40 848.07 C 179.17 773.93 143.22 679.67 143.22 576.77 C 143.22 338.55 336.39 145.38 574.61 145.38 C 677.50 145.38 771.77 181.33 845.91 241.56 C 906.14 315.70 942.09 409.96 942.09 512.86 Z" fill="#35c1e6" fill-rule="nonzero" node-id="24" stroke="none" target-height="798.87" target-width="798.87" target-x="143.22" target-y="145.38"/><path d="M 734.38 289.17 L 713.29 359.47 L 571.25 832.40 L 438.32 585.23 L 267.36 493.36 L 191.15 452.30 Z" fill="#ffc764" fill-rule="nonzero" node-id="26" stroke="none" target-height="543.23" target-width="543.23" target-x="191.15" target-y="289.17"/><path d="M 713.29 359.47 L 571.25 832.40 L 438.32 585.23 L 267.36 493.36 Z" fill="#fdbb2c" fill-rule="nonzero" node-id="28" stroke="none" target-height="472.93002" target-width="445.93" target-x="267.36" target-y="359.47"/><g node-id="49"><path d="M 571.25 848.38 C 565.41 848.38 559.99 845.18 557.18 839.97 L 426.53 597.03 L 183.59 466.38 C 177.89 463.31 174.61 457.13 175.26 450.70 C 175.92 444.27 180.38 438.87 186.56 437.01 L 729.78 273.88 C 735.44 272.16 741.53 273.72 745.68 277.88 C 749.83 282.04 751.38 288.14 749.69 293.77 L 677.48 534.39 C 674.94 542.83 666.04 547.60 657.59 545.10 C 649.13 542.56 644.34 533.66 646.87 525.20 L 710.54 313.02 L 232.70 456.51 L 445.89 571.16 C 448.65 572.64 450.91 574.91 452.40 577.67 L 567.04 790.86 L 628.48 586.24 C 631.01 577.79 639.90 572.96 648.37 575.54 C 656.83 578.08 661.62 586.98 659.09 595.43 L 586.56 837.00 C 584.70 843.19 579.29 847.65 572.86 848.30 C 572.31 848.36 571.78 848.38 571.25 848.38 Z" fill="#22104f" fill-rule="nonzero" group-id="1" node-id="32" stroke="none" target-height="576.22" target-width="576.77" target-x="174.61" target-y="272.16"/></g><g node-id="50"><path d="M 440.14 599.40 C 436.05 599.40 431.96 597.84 428.84 594.72 C 422.60 588.48 422.60 578.37 428.84 572.13 L 609.92 391.06 C 616.16 384.82 626.27 384.82 632.51 391.06 C 638.75 397.30 638.75 407.41 632.51 413.65 L 451.43 594.72 C 448.31 597.84 444.22 599.40 440.14 599.40 Z" fill="#22104f" fill-rule="nonzero" group-id="2" node-id="37" stroke="none" target-height="214.58002" target-width="216.15" target-x="422.6" target-y="384.82"/></g><g node-id="51"><path d="M 308.73 910.05 C 306.21 910.05 303.64 909.45 301.26 908.19 C 154.50 830.34 63.33 678.86 63.33 512.86 C 63.33 412.65 95.76 317.94 157.13 238.96 C 162.54 231.96 172.59 230.72 179.54 236.14 C 186.52 241.55 187.77 251.59 182.36 258.55 C 125.40 331.88 95.29 419.81 95.29 512.85 C 95.29 667.00 179.95 807.67 316.23 879.96 C 324.02 884.09 326.99 893.76 322.85 901.56 C 319.99 906.97 314.45 910.05 308.73 910.05 Z" fill="#22104f" fill-rule="nonzero" group-id="3" node-id="42" stroke="none" target-height="679.32996" target-width="263.65997" target-x="63.33" target-y="230.72"/></g><path d="M 510.70 960.22 C 459.08 960.22 408.62 951.52 360.72 934.36 C 352.41 931.39 348.10 922.24 351.07 913.93 C 354.05 905.62 363.15 901.26 371.50 904.28 C 415.93 920.20 462.76 928.27 510.70 928.27 C 739.77 928.27 926.11 741.92 926.11 512.86 C 926.11 283.80 739.77 97.44 510.70 97.44 C 403.02 97.44 301.02 138.47 223.47 212.97 C 217.11 219.06 206.98 218.87 200.88 212.52 C 194.77 206.15 194.97 196.04 201.33 189.93 C 284.86 109.68 394.73 65.49 510.70 65.49 C 757.38 65.49 958.07 266.17 958.07 512.86 C 958.07 759.55 757.38 960.22 510.70 960.22 Z" fill="#22104f" fill-rule="nonzero" group-id="4" node-id="47" stroke="none" target-height="894.73" target-width="763.3" target-x="194.77" target-y="65.49"/></svg>