<svg height="256" node-id="1" sillyvg="true" template-height="1024" template-width="1024" version="1.1" viewBox="0 0 1024 1024" width="256" xmlns="http://www.w3.org/2000/svg" xmlns:xlink="http://www.w3.org/1999/xlink"><defs node-id="25"></defs><path d="M 943.33 260.62 L 943.33 804.62 C 943.33 822.22 928.93 836.62 911.33 836.62 L 597.89 836.62 C 583.49 836.62 569.57 842.38 559.33 852.62 C 549.09 862.86 535.17 868.62 520.77 868.62 L 501.89 868.62 C 487.49 868.62 473.57 862.86 463.33 852.62 C 453.09 842.38 439.17 836.62 424.77 836.62 L 111.33 836.62 C 93.73 836.62 79.33 822.22 79.33 804.62 L 79.33 260.62 C 79.33 243.02 93.73 228.62 111.33 228.62 L 143.33 228.62 L 143.33 772.62 L 447.33 772.62 C 482.69 772.62 511.33 801.26 511.33 836.62 C 511.33 801.26 539.97 772.62 575.33 772.62 L 879.33 772.62 L 879.33 228.62 L 911.33 228.62 C 928.93 228.62 943.33 243.02 943.33 260.62 Z" fill="#9777c3" fill-rule="nonzero" node-id="29" stroke="none" target-height="640" target-width="864" target-x="79.33" target-y="228.62"/><path d="M 879.33 196.62 L 879.33 772.62 L 575.33 772.62 C 539.97 772.62 511.33 801.26 511.33 836.62 L 511.33 260.62 C 511.33 248.94 514.53 238.06 519.97 228.62 C 531.01 209.42 551.65 196.62 575.33 196.62 L 879.33 196.62 Z" fill="#aee6f5" fill-rule="nonzero" node-id="31" stroke="none" target-height="640" target-width="368.00003" target-x="511.33" target-y="196.62"/><path d="M 511.33 260.62 L 511.33 836.62 C 511.33 801.26 482.69 772.62 447.33 772.62 L 143.33 772.62 L 143.33 196.62 L 447.33 196.62 C 471.01 196.62 491.65 209.42 502.69 228.62 C 508.13 238.06 511.33 248.94 511.33 260.62 Z" fill="#aee6f5" fill-rule="nonzero" node-id="33" stroke="none" target-height="640" target-width="368" target-x="143.33" target-y="196.62"/><path d="M 607.33 355.55 C 607.33 434.48 687.33 470.91 687.33 470.91 C 687.33 470.91 767.33 434.48 767.33 355.55 C 767.33 311.96 731.51 276.62 687.33 276.62 C 643.15 276.62 607.33 311.96 607.33 355.55 Z" fill="#f43131" fill-rule="nonzero" node-id="35" stroke="none" target-height="194.29001" target-width="160" target-x="607.33" target-y="276.62"/><g node-id="74"><path d="M 207.33 788.62 L 143.33 788.62 C 134.49 788.62 127.33 781.46 127.33 772.62 L 127.33 244.62 L 111.33 244.62 C 102.51 244.62 95.33 251.79 95.33 260.62 L 95.33 292.62 C 95.33 301.46 88.17 308.62 79.33 308.62 C 70.49 308.62 63.33 301.46 63.33 292.62 L 63.33 260.62 C 63.33 234.15 84.86 212.62 111.33 212.62 L 143.33 212.62 C 152.17 212.62 159.33 219.78 159.33 228.62 L 159.33 756.62 L 207.33 756.62 C 216.17 756.62 223.33 763.78 223.33 772.62 C 223.33 781.47 216.17 788.62 207.33 788.62 Z" fill="#22104f" fill-rule="nonzero" group-id="1" node-id="39" stroke="none" target-height="576" target-width="160" target-x="63.33" target-y="212.62"/></g><g node-id="75"><path d="M 520.77 884.62 L 501.90 884.62 C 483.36 884.62 465.18 877.09 452.02 863.93 C 444.82 856.74 434.90 852.62 424.77 852.62 L 111.33 852.62 C 84.86 852.62 63.33 831.09 63.33 804.62 L 63.33 356.62 C 63.33 347.78 70.49 340.62 79.33 340.62 C 88.17 340.62 95.33 347.78 95.33 356.62 L 95.33 804.62 C 95.33 813.45 102.51 820.62 111.33 820.62 L 424.77 820.62 C 443.31 820.62 461.49 828.15 474.65 841.31 C 481.85 848.50 491.77 852.62 501.90 852.62 L 520.77 852.62 C 530.90 852.62 540.83 848.50 548.02 841.31 C 561.18 828.15 579.36 820.62 597.90 820.62 L 911.34 820.62 C 920.16 820.62 927.34 813.45 927.34 804.62 L 927.34 260.62 C 927.34 251.79 920.16 244.62 911.34 244.62 L 895.34 244.62 L 895.34 772.62 C 895.34 781.46 888.18 788.62 879.34 788.62 L 575.34 788.62 C 548.87 788.62 527.34 810.15 527.34 836.62 C 527.34 845.46 520.18 852.62 511.34 852.62 C 502.50 852.62 495.34 845.46 495.34 836.62 C 495.34 810.15 473.81 788.62 447.34 788.62 L 271.34 788.62 C 262.50 788.62 255.34 781.46 255.34 772.62 C 255.34 763.78 262.50 756.62 271.34 756.62 L 447.34 756.62 C 473.48 756.62 496.73 769.23 511.34 788.67 C 525.95 769.23 549.20 756.62 575.34 756.62 L 863.34 756.62 L 863.34 228.62 C 863.34 219.78 870.50 212.62 879.34 212.62 L 911.34 212.62 C 937.81 212.62 959.34 234.15 959.34 260.62 L 959.34 804.62 C 959.34 831.09 937.81 852.62 911.34 852.62 L 597.90 852.62 C 587.77 852.62 577.84 856.74 570.65 863.93 C 557.49 877.09 539.31 884.62 520.77 884.62 Z" fill="#22104f" fill-rule="nonzero" group-id="2" node-id="44" stroke="none" target-height="672" target-width="896.01" target-x="63.33" target-y="212.62"/></g><g node-id="76"><path d="M 687.35 488.42 L 680.74 485.44 C 679.51 484.89 650.44 471.55 625.89 443.69 C 620.05 437.06 620.69 426.96 627.32 421.11 C 633.95 415.23 644.05 415.89 649.90 422.53 C 663.53 438.00 678.86 447.98 687.36 452.83 C 705.02 442.83 751.34 411.31 751.34 355.50 C 751.34 320.83 722.63 292.62 687.34 292.62 C 652.05 292.62 623.34 320.82 623.34 355.50 C 623.34 361.48 623.85 367.45 624.86 373.23 C 626.38 381.93 620.55 390.23 611.84 391.75 C 603.10 393.27 594.85 387.44 593.32 378.73 C 592.00 371.14 591.33 363.32 591.33 355.50 C 591.33 303.19 634.39 260.62 687.33 260.62 C 740.27 260.62 783.33 303.18 783.33 355.50 C 783.33 443.84 697.60 483.77 693.94 485.42 L 687.35 488.42 Z" fill="#22104f" fill-rule="nonzero" group-id="3" node-id="49" stroke="none" target-height="227.80002" target-width="192" target-x="591.33" target-y="260.62"/></g><g node-id="77"><path d="M 686.94 387.25 C 669.56 387.25 655.42 373.20 655.42 355.94 C 655.42 338.67 669.56 324.63 686.94 324.63 C 704.32 324.63 718.46 338.68 718.46 355.94 C 718.47 373.20 704.33 387.25 686.94 387.25 Z M 686.94 355.25 L 687.42 355.94 C 687.43 355.61 687.23 355.25 686.94 355.25 Z" fill="#22104f" fill-rule="nonzero" group-id="4" node-id="54" stroke="none" target-height="62.619995" target-width="63.049988" target-x="655.42" target-y="324.63"/></g><g node-id="78"><g node-id="81"><path d="M 711.33 708.62 L 319.33 708.62 C 275.22 708.62 239.33 672.73 239.33 628.62 C 239.33 584.51 275.22 548.62 319.33 548.62 L 367.33 548.62 C 402.62 548.62 431.33 519.92 431.33 484.62 C 431.33 449.32 402.62 420.62 367.33 420.62 L 207.33 420.62 C 198.49 420.62 191.33 413.46 191.33 404.62 C 191.33 395.78 198.49 388.62 207.33 388.62 L 367.33 388.62 C 420.27 388.62 463.33 431.68 463.33 484.62 C 463.33 537.56 420.27 580.62 367.33 580.62 L 319.33 580.62 C 292.86 580.62 271.33 602.15 271.33 628.62 C 271.33 655.09 292.86 676.62 319.33 676.62 L 711.33 676.62 C 751.03 676.62 783.33 644.32 783.33 604.62 C 783.33 564.92 751.03 532.62 711.33 532.62 L 671.33 532.62 C 662.49 532.62 655.33 525.46 655.33 516.62 C 655.33 507.78 662.49 500.62 671.33 500.62 L 711.33 500.62 C 768.67 500.62 815.33 547.28 815.33 604.62 C 815.33 661.97 768.68 708.62 711.33 708.62 Z" fill="#fdbb2c" fill-rule="nonzero" group-id="5,8" node-id="61" stroke="none" target-height="320" target-width="624" target-x="191.33" target-y="388.62"/></g></g><g node-id="79"><path d="M 511.33 852.62 C 502.49 852.62 495.33 845.46 495.33 836.62 L 495.33 260.62 C 495.33 246.70 499.06 232.87 506.10 220.64 C 520.29 195.97 546.82 180.62 575.33 180.62 L 719.33 180.62 C 728.17 180.62 735.33 187.78 735.33 196.62 C 735.33 205.46 728.17 212.62 719.33 212.62 L 575.33 212.62 C 558.24 212.62 542.35 221.81 533.85 236.59 C 529.52 244.11 527.33 252.19 527.33 260.62 L 527.33 772.65 C 540.71 762.59 557.34 756.62 575.33 756.62 L 863.33 756.62 L 863.33 212.62 L 783.33 212.62 C 774.49 212.62 767.33 205.46 767.33 196.62 C 767.33 187.78 774.49 180.62 783.33 180.62 L 879.33 180.62 C 888.17 180.62 895.33 187.78 895.33 196.62 L 895.33 772.62 C 895.33 781.46 888.17 788.62 879.33 788.62 L 575.33 788.62 C 548.86 788.62 527.33 810.15 527.33 836.62 C 527.33 845.47 520.17 852.62 511.33 852.62 Z" fill="#22104f" fill-rule="nonzero" group-id="6" node-id="67" stroke="none" target-height="672" target-width="400.00003" target-x="495.33" target-y="180.62"/></g><path d="M 511.33 852.62 C 502.49 852.62 495.33 845.46 495.33 836.62 C 495.33 810.15 473.80 788.62 447.33 788.62 L 271.33 788.62 C 262.49 788.62 255.33 781.46 255.33 772.62 C 255.33 763.78 262.49 756.62 271.33 756.62 L 447.33 756.62 C 465.32 756.62 481.95 762.59 495.33 772.65 L 495.33 260.62 C 495.33 252.18 493.14 244.10 488.82 236.60 C 480.31 221.80 464.42 212.62 447.33 212.62 L 159.33 212.62 L 159.33 756.62 L 207.33 756.62 C 216.17 756.62 223.33 763.78 223.33 772.62 C 223.33 781.46 216.17 788.62 207.33 788.62 L 143.33 788.62 C 134.49 788.62 127.33 781.46 127.33 772.62 L 127.33 196.62 C 127.33 187.78 134.49 180.62 143.33 180.62 L 447.33 180.62 C 475.84 180.62 502.37 195.96 516.56 220.65 C 523.60 232.87 527.33 246.70 527.33 260.62 L 527.33 836.62 C 527.33 845.47 520.17 852.62 511.33 852.62 Z" fill="#22104f" fill-rule="nonzero" group-id="7" node-id="72" stroke="none" target-height="672" target-width="400" target-x="127.33" target-y="180.62"/></svg>