<svg height="256" node-id="1" sillyvg="true" template-height="1024" template-width="1024" version="1.1" viewBox="0 0 1024 1024" width="256" xmlns="http://www.w3.org/2000/svg" xmlns:xlink="http://www.w3.org/1999/xlink"><defs node-id="41"></defs><path d="M 272.41 841.69 L 744.58 841.69 L 744.58 942.87 L 272.41 942.87 Z" fill="#9777c3" fill-rule="nonzero" node-id="45" stroke="none" target-height="101.17999" target-width="472.17" target-x="272.41" target-y="841.69"/><path d="M 677.12 841.69 L 339.86 841.69 L 356.72 234.62 L 660.26 234.62 Z" fill="#aee6f5" fill-rule="nonzero" node-id="47" stroke="none" target-height="607.07" target-width="337.26" target-x="339.86" target-y="234.62"/><path d="M 710.85 234.62 L 306.14 234.62 L 508.49 82.85 Z" fill="#9777c3" fill-rule="nonzero" node-id="49" stroke="none" target-height="151.76999" target-width="404.70996" target-x="306.14" target-y="82.85"/><path d="M 575.94 352.66 C 575.94 389.91 545.74 420.11 508.49 420.11 C 471.24 420.11 441.04 389.91 441.04 352.66 C 441.04 315.41 471.24 285.21 508.49 285.21 C 545.74 285.21 575.94 315.41 575.94 352.66 Z" fill="#fdbb2c" fill-rule="nonzero" node-id="51" stroke="none" target-height="134.9" target-width="134.9" target-x="441.04" target-y="285.21"/><path d="M 575.94 841.69 L 441.04 841.69 L 441.04 757.37 C 441.04 720.12 471.24 689.92 508.49 689.92 L 508.49 689.92 C 545.74 689.92 575.94 720.12 575.94 757.37 L 575.94 841.69 Z" fill="#35c1e6" fill-rule="nonzero" node-id="53" stroke="none" target-height="151.77002" target-width="134.9" target-x="441.04" target-y="689.92"/><g node-id="131"><path d="M 744.57 959.73 L 272.41 959.73 C 263.10 959.73 255.55 952.19 255.55 942.87 L 255.55 841.69 C 255.55 832.37 263.10 824.83 272.41 824.83 L 356.73 824.83 C 366.04 824.83 373.59 832.37 373.59 841.69 C 373.59 851.01 366.04 858.55 356.73 858.55 L 289.28 858.55 L 289.28 926.00 L 727.72 926.00 L 727.72 858.55 L 424.18 858.55 C 414.87 858.55 407.32 851.01 407.32 841.69 C 407.32 832.37 414.87 824.83 424.18 824.83 L 744.58 824.83 C 753.89 824.83 761.44 832.37 761.44 841.69 L 761.44 942.87 C 761.44 952.18 753.89 959.73 744.57 959.73 Z" fill="#22104f" fill-rule="nonzero" group-id="1" node-id="57" stroke="none" target-height="134.89996" target-width="505.89" target-x="255.55" target-y="824.83"/></g><g node-id="132"><path d="M 862.62 959.73 L 154.37 959.73 C 145.06 959.73 137.51 952.19 137.51 942.87 C 137.51 933.55 145.06 926.00 154.37 926.00 L 862.62 926.00 C 871.93 926.00 879.48 933.54 879.48 942.86 C 879.48 952.18 871.93 959.73 862.62 959.73 Z" fill="#22104f" fill-rule="nonzero" group-id="2" node-id="62" stroke="none" target-height="33.72998" target-width="741.97" target-x="137.51" target-y="926"/></g><g node-id="133"><path d="M 677.12 858.55 L 424.18 858.55 C 414.87 858.55 407.32 851.01 407.32 841.69 C 407.32 832.37 414.87 824.83 424.18 824.83 L 659.79 824.83 L 653.70 605.40 C 653.44 596.09 660.77 588.34 670.08 588.08 C 679.66 588.33 687.15 595.18 687.40 604.48 L 693.98 841.24 C 694.11 845.78 692.39 850.20 689.21 853.46 C 686.04 856.70 681.68 858.55 677.12 858.55 Z" fill="#22104f" fill-rule="nonzero" group-id="3" node-id="67" stroke="none" target-height="270.46997" target-width="286.78998" target-x="407.32" target-y="588.08"/></g><g node-id="134"><path d="M 356.72 858.55 L 339.86 858.55 C 335.31 858.55 330.94 856.71 327.77 853.45 C 324.59 850.19 322.87 845.78 323.00 841.23 L 339.86 234.15 C 340.11 225.03 347.58 217.76 356.71 217.76 L 660.24 217.76 C 669.37 217.76 676.85 225.03 677.09 234.15 L 685.52 538.86 C 685.77 548.17 678.44 555.92 669.13 556.18 C 659.65 556.16 652.07 549.11 651.81 539.80 L 643.83 251.48 L 373.13 251.48 L 357.20 824.82 C 366.29 825.08 373.59 832.53 373.59 841.68 C 373.59 851.01 366.04 858.55 356.72 858.55 Z" fill="#22104f" fill-rule="nonzero" group-id="4" node-id="72" stroke="none" target-height="640.79" target-width="362.90002" target-x="322.87" target-y="217.76"/></g><g node-id="135"><path d="M 710.85 251.48 L 306.14 251.48 C 298.89 251.48 292.45 246.84 290.14 239.96 C 287.84 233.08 290.21 225.49 296.00 221.14 L 366.66 168.02 C 374.13 162.44 384.68 163.94 390.27 171.36 C 395.87 178.80 394.37 189.38 386.93 194.98 L 356.63 217.76 L 660.26 217.76 L 508.49 103.93 L 439.69 155.52 C 432.22 161.14 421.67 159.60 416.08 152.15 C 410.49 144.70 412.00 134.13 419.45 128.54 L 498.37 69.35 C 504.36 64.85 512.61 64.85 518.61 69.35 L 720.97 221.12 C 726.77 225.48 729.15 233.05 726.85 239.94 C 724.55 246.84 718.11 251.48 710.85 251.48 Z" fill="#22104f" fill-rule="nonzero" group-id="5" node-id="77" stroke="none" target-height="186.63" target-width="441.31003" target-x="287.84" target-y="64.85"/></g><g node-id="136"><path d="M 508.49 436.97 C 484.86 436.97 462.18 426.97 446.28 409.56 C 440.01 402.68 440.49 392.01 447.37 385.73 C 454.27 379.46 464.92 379.96 471.20 386.82 C 480.87 397.42 494.11 403.25 508.49 403.25 C 536.39 403.25 559.08 380.56 559.08 352.66 C 559.08 324.76 536.39 302.07 508.49 302.07 C 485.39 302.07 465.27 317.71 459.57 340.12 C 457.27 349.15 448.13 354.56 439.07 352.31 C 430.04 350.01 424.59 340.83 426.88 331.81 C 436.38 294.44 469.94 268.35 508.49 268.35 C 554.98 268.35 592.81 306.18 592.81 352.67 C 592.81 399.16 554.98 436.97 508.49 436.97 Z" fill="#22104f" fill-rule="nonzero" group-id="6" node-id="82" stroke="none" target-height="168.62" target-width="168.22" target-x="424.59" target-y="268.35"/></g><g node-id="137"><path d="M 575.94 858.55 L 441.04 858.55 C 431.73 858.55 424.18 851.01 424.18 841.69 L 424.18 757.37 C 424.18 710.88 462.01 673.05 508.50 673.05 C 554.99 673.05 592.82 710.88 592.82 757.37 L 592.82 841.69 C 592.81 851.01 585.26 858.55 575.94 858.55 Z M 457.90 824.82 L 559.08 824.82 L 559.08 757.37 C 559.08 729.47 536.39 706.78 508.49 706.78 C 480.59 706.78 457.90 729.47 457.90 757.37 L 457.90 824.82 Z" fill="#22104f" fill-rule="nonzero" group-id="7" node-id="87" stroke="none" target-height="185.5" target-width="168.64001" target-x="424.18" target-y="673.05"/></g><g node-id="138"><path d="M 693.99 487.56 L 323.00 487.56 C 313.69 487.56 306.14 480.01 306.14 470.70 C 306.14 461.39 313.69 453.84 323.00 453.84 L 693.99 453.84 C 703.30 453.84 710.85 461.39 710.85 470.70 C 710.85 480.01 703.30 487.56 693.99 487.56 Z" fill="#22104f" fill-rule="nonzero" group-id="8" node-id="92" stroke="none" target-height="33.72" target-width="404.70996" target-x="306.14" target-y="453.84"/></g><g node-id="139"><g node-id="143"><path d="M 710.85 318.94 C 703.79 318.94 697.21 314.47 694.85 307.40 C 691.90 298.57 696.68 289.01 705.51 286.07 L 857.28 235.48 C 866.13 232.51 875.67 237.32 878.61 246.14 C 881.56 254.97 876.78 264.53 867.95 267.47 L 716.18 318.06 C 714.41 318.66 712.61 318.94 710.85 318.94 Z" fill="#fdbb2c" fill-rule="nonzero" group-id="9,13" node-id="99" stroke="none" target-height="86.43001" target-width="189.65997" target-x="691.9" target-y="232.51"/></g></g><g node-id="140"><g node-id="144"><path d="M 862.62 470.71 C 860.86 470.71 859.06 470.43 857.28 469.84 L 705.51 419.25 C 696.68 416.30 691.90 406.75 694.85 397.92 C 697.80 389.09 707.33 384.30 716.18 387.26 L 867.95 437.85 C 876.78 440.80 881.56 450.35 878.61 459.18 C 876.26 466.24 869.68 470.71 862.62 470.71 Z" fill="#fdbb2c" fill-rule="nonzero" group-id="10,14" node-id="107" stroke="none" target-height="86.41" target-width="189.65997" target-x="691.9" target-y="384.3"/></g></g><g node-id="141"><g node-id="145"><path d="M 323.00 302.07 C 323.00 303.92 322.66 305.78 322.16 307.47 C 319.80 314.55 313.22 318.94 306.14 318.94 C 304.45 318.94 302.60 318.60 300.74 318.10 L 148.97 267.50 C 141.89 265.14 137.50 258.56 137.50 251.48 C 137.50 249.63 137.84 247.77 138.34 246.08 C 140.70 239.00 147.28 234.61 154.36 234.61 C 156.21 234.61 158.07 234.95 159.76 235.45 L 311.53 286.04 C 318.61 288.41 323.00 294.99 323.00 302.07 Z" fill="#fdbb2c" fill-rule="nonzero" group-id="11,15" node-id="115" stroke="none" target-height="84.33" target-width="185.5" target-x="137.5" target-y="234.61"/></g></g><g node-id="142"><g node-id="146"><path d="M 323.00 403.25 C 323.00 410.33 318.62 416.91 311.53 419.27 L 159.76 469.86 C 157.91 470.37 156.05 470.70 154.36 470.70 C 147.28 470.70 140.70 466.32 138.34 459.23 C 137.83 457.54 137.50 455.69 137.50 453.83 C 137.50 446.75 141.88 440.17 148.97 437.81 L 300.74 387.22 C 309.68 384.35 319.12 389.07 322.16 397.84 C 322.66 399.54 323.00 401.39 323.00 403.25 Z" fill="#fdbb2c" fill-rule="nonzero" group-id="12,16" node-id="123" stroke="none" target-height="86.350006" target-width="185.5" target-x="137.5" target-y="384.35"/></g></g><path d="M 323.00 302.07 L 323.00 403.25 C 323.00 401.40 322.66 399.54 322.16 397.85 C 319.12 389.08 309.68 384.36 300.74 387.23 L 148.97 437.82 C 141.89 440.18 137.50 446.76 137.50 453.84 L 137.50 251.48 C 137.50 258.56 141.88 265.14 148.97 267.50 L 300.74 318.09 C 302.59 318.60 304.45 318.93 306.14 318.93 C 313.22 318.93 319.80 314.55 322.16 307.46 C 322.66 305.78 323.00 303.92 323.00 302.07 Z" fill="#ffc764" fill-rule="nonzero" node-id="127" stroke="none" target-height="202.36" target-width="185.5" target-x="137.5" target-y="251.48"/><path d="M 693.99 403.25 L 693.99 302.07 C 693.99 303.92 694.33 305.78 694.83 307.47 C 697.87 316.24 707.31 320.96 716.25 318.09 L 868.02 267.50 C 875.10 265.14 879.49 258.56 879.49 251.48 L 879.49 453.84 C 879.49 446.76 875.11 440.18 868.02 437.82 L 716.25 387.23 C 714.40 386.72 712.54 386.39 710.85 386.39 C 703.77 386.39 697.19 390.77 694.83 397.86 C 694.32 399.54 693.99 401.39 693.99 403.25 Z" fill="#ffc764" fill-rule="nonzero" node-id="129" stroke="none" target-height="202.36" target-width="185.5" target-x="693.99" target-y="251.48"/></svg>